<svg xmlns="http://www.w3.org/2000/svg" width="23" height="24" viewBox="0 0 23 24" fill="none">
    <path d="M10.5417 14.8751H12.4584V16.7917H10.5417V14.8751ZM10.5417 7.20842H12.4584V12.9584H10.5417V7.20842ZM11.4905 2.41675C6.2005 2.41675 1.91675 6.71008 1.91675 12.0001C1.91675 17.2901 6.2005 21.5834 11.4905 21.5834C16.7901 21.5834 21.0834 17.2901 21.0834 12.0001C21.0834 6.71008 16.7901 2.41675 11.4905 2.41675ZM11.5001 19.6667C7.26425 19.6667 3.83341 16.2359 3.83341 12.0001C3.83341 7.76425 7.26425 4.33341 11.5001 4.33341C15.7359 4.33341 19.1667 7.76425 19.1667 12.0001C19.1667 16.2359 15.7359 19.6667 11.5001 19.6667Z" fill="#F04438"/>
    </svg>